<?xml version="1.0" encoding="UTF-8"?>
<svg xmlns="http://www.w3.org/2000/svg" width="66" height="28" version="1.1">
<g transform="translate(1175.7775,187.36908)">
	<g transform="matrix(1.25,0,0,-1.25,-2136.2786,-88.052324)">
		<g transform="translate(797.8545,68.6387)">
			<path d="
				m 0,0
				c 0.169,-1.556 -6.087,-3.509 -13.975,-4.362 -7.886,-0.854 -14.586,1.27 -14.586,1.27 0,0 6.09,3.509 13.977,4.363
				C -6.697,2.125 -0.168,1.556 0,0
			" style="fill:#3fa9f5;fill-opacity:1;fill-rule:nonzero;stroke:none" />
		</g>
		<g transform="translate(796.9023,68.2803)">
			<path d="
				m 0,0
				c 0.493,-1.473 -5.103,-5.184 -12.497,-8.291 -7.396,-3.107 -14.281,-2.962 -14.281,-2.962 0,0 5.103,5.184 12.498,8.291
				C -6.886,0.146 -0.492,1.471 0,0
			" style="fill:#3fa9f5;fill-opacity:1;fill-rule:nonzero;stroke:none" />
		</g>
		<g transform="translate(797.1289,70.4219)">
			<path d="
				m 0,0
				c -0.088,-1.555 -6.589,-2.077 -14.521,-1.166 -7.934,0.911 -14.207,4.465 -14.207,4.465 0,0 6.589,2.077 14.522,1.166
				C -6.272,3.553 0.087,1.554 0,0
			" style="fill:#3fa9f5;fill-opacity:1;fill-rule:nonzero;stroke:none" />
		</g>
		<g transform="translate(821.0732,71.8662)">
			<path d="
				m 0,0
				c 0.054,-2.161 -9.22,-11.111 -18.732,-12.142 -9.513,-1.029 -19,3.688 -19.449,7.829 -0.448,4.139 7.631,10.757 17.145,11.788
				C -11.522,8.505 -0.054,2.161 0,0
			" style="fill:#0071bc;fill-opacity:1;fill-rule:nonzero;stroke:none" />
		</g>
	</g>
	<text
		y="-283.66345"
		x="-1114.2706"
		transform="matrix(0.9948,-0.1012,0.1012,0.9948,0,0)">
		<tspan
			style="font-size:17.49988174px;font-variant:normal;font-weight:bold;font-stretch:normal;writing-mode:lr-tb;fill:#ffffff;fill-opacity:1;fill-rule:nonzero;stroke:none;font-family:VAG Rounded Thin;-inkscape-font-specification:VAGRounded-Bold"
			x="-1114.2706"
			y="-283.66345">f</tspan>
	</text>
</g>
</svg>
