<?xml version="1.0" encoding="UTF-8" standalone="no"?>
<!-- Created with Inkscape (http://www.inkscape.org/) -->

<svg
   xmlns:dc="http://purl.org/dc/elements/1.1/"
   xmlns:cc="http://creativecommons.org/ns#"
   xmlns:rdf="http://www.w3.org/1999/02/22-rdf-syntax-ns#"
   xmlns:svg="http://www.w3.org/2000/svg"
   xmlns="http://www.w3.org/2000/svg"
   xmlns:sodipodi="http://sodipodi.sourceforge.net/DTD/sodipodi-0.dtd"
   xmlns:inkscape="http://www.inkscape.org/namespaces/inkscape"
   width="65.840668"
   height="28.033951"
   id="svg5832"
   version="1.1"
   inkscape:version="0.48.4 r9939"
   sodipodi:docname="New document 40">
  <defs
     id="defs5834">
    <clipPath
       clipPathUnits="userSpaceOnUse"
       id="clipPath3109">
      <path
         inkscape:connector-curvature="0"
         d="M 0,768 1024,768 1024,0 0,0 0,768 z"
         id="path3111" />
    </clipPath>
  </defs>
  <sodipodi:namedview
     id="base"
     pagecolor="#ffffff"
     bordercolor="#666666"
     borderopacity="1.0"
     inkscape:pageopacity="0.0"
     inkscape:pageshadow="2"
     inkscape:zoom="1.979899"
     inkscape:cx="197.05153"
     inkscape:cy="-9.4493202"
     inkscape:document-units="px"
     inkscape:current-layer="layer1"
     showgrid="false"
     fit-margin-top="0"
     fit-margin-left="0"
     fit-margin-right="0"
     fit-margin-bottom="0"
     inkscape:window-width="1276"
     inkscape:window-height="764"
     inkscape:window-x="1280"
     inkscape:window-y="34"
     inkscape:window-maximized="0" />
  <metadata
     id="metadata5837">
    <rdf:RDF>
      <cc:Work
         rdf:about="">
        <dc:format>image/svg+xml</dc:format>
        <dc:type
           rdf:resource="http://purl.org/dc/dcmitype/StillImage" />
        <dc:title></dc:title>
      </cc:Work>
    </rdf:RDF>
  </metadata>
  <g
     inkscape:label="Layer 1"
     inkscape:groupmode="layer"
     id="layer1"
     transform="translate(1175.7775,187.36908)">
    <g
       transform="matrix(1.25,0,0,-1.25,-2136.2786,-88.052324)"
       id="g3105">
      <g
         id="g3107"
         clip-path="url(#clipPath3109)">
        <g
           id="g3113"
           transform="translate(797.8545,68.6387)">
          <path
             inkscape:connector-curvature="0"
             d="m 0,0 c 0.169,-1.556 -6.087,-3.509 -13.975,-4.362 -7.886,-0.854 -14.586,1.27 -14.586,1.27 0,0 6.09,3.509 13.977,4.363 C -6.697,2.125 -0.168,1.556 0,0"
             style="fill:#3fa9f5;fill-opacity:1;fill-rule:nonzero;stroke:none"
             id="path3115" />
        </g>
        <g
           id="g3117"
           transform="translate(796.9023,68.2803)">
          <path
             inkscape:connector-curvature="0"
             d="m 0,0 c 0.493,-1.473 -5.103,-5.184 -12.497,-8.291 -7.396,-3.107 -14.281,-2.962 -14.281,-2.962 0,0 5.103,5.184 12.498,8.291 C -6.886,0.146 -0.492,1.471 0,0"
             style="fill:#3fa9f5;fill-opacity:1;fill-rule:nonzero;stroke:none"
             id="path3119" />
        </g>
        <g
           id="g3121"
           transform="translate(797.1289,70.4219)">
          <path
             inkscape:connector-curvature="0"
             d="m 0,0 c -0.088,-1.555 -6.589,-2.077 -14.521,-1.166 -7.934,0.911 -14.207,4.465 -14.207,4.465 0,0 6.589,2.077 14.522,1.166 C -6.272,3.553 0.087,1.554 0,0"
             style="fill:#3fa9f5;fill-opacity:1;fill-rule:nonzero;stroke:none"
             id="path3123" />
        </g>
        <g
           id="g3125"
           transform="translate(821.0732,71.8662)">
          <path
             inkscape:connector-curvature="0"
             d="m 0,0 c 0.054,-2.161 -9.22,-11.111 -18.732,-12.142 -9.513,-1.029 -19,3.688 -19.449,7.829 -0.448,4.139 7.631,10.757 17.145,11.788 C -11.522,8.505 -0.054,2.161 0,0"
             style="fill:#0071bc;fill-opacity:1;fill-rule:nonzero;stroke:none"
             id="path3127" />
        </g>
      </g>
    </g>
    <text
       style="font-size:15px"
       y="-283.66345"
       x="-1114.2706"
       transform="matrix(0.99486385,-0.10122211,0.10122211,0.99486385,0,0)"
       id="text3129">
      <tspan
         style="font-size:17.49988174px;font-variant:normal;font-weight:bold;font-stretch:normal;writing-mode:lr-tb;fill:#ffffff;fill-opacity:1;fill-rule:nonzero;stroke:none;font-family:VAG Rounded Thin;-inkscape-font-specification:VAGRounded-Bold"
         x="-1114.2706"
         y="-283.66345"
         id="tspan3131">f</tspan>
    </text>
  </g>
</svg>
