<?xml version="1.0" encoding="UTF-8" standalone="no"?>
<!-- Created with Inkscape (http://www.inkscape.org/) -->

<svg
   xmlns:dc="http://purl.org/dc/elements/1.1/"
   xmlns:cc="http://creativecommons.org/ns#"
   xmlns:rdf="http://www.w3.org/1999/02/22-rdf-syntax-ns#"
   xmlns:svg="http://www.w3.org/2000/svg"
   xmlns="http://www.w3.org/2000/svg"
   xmlns:sodipodi="http://sodipodi.sourceforge.net/DTD/sodipodi-0.dtd"
   xmlns:inkscape="http://www.inkscape.org/namespaces/inkscape"
   id="svg2"
   version="1.1"
   inkscape:version="0.92.1 r"
   width="443.96838"
   height="189.49913"
   xml:space="preserve"
   sodipodi:docname="logo.svg"><metadata
     id="metadata8"><rdf:RDF><cc:Work
         rdf:about=""><dc:format>image/svg+xml</dc:format><dc:type
           rdf:resource="http://purl.org/dc/dcmitype/StillImage" /><dc:title></dc:title></cc:Work></rdf:RDF></metadata><defs
     id="defs6" /><sodipodi:namedview
     pagecolor="#ffffff"
     bordercolor="#666666"
     borderopacity="1"
     objecttolerance="10"
     gridtolerance="10"
     guidetolerance="10"
     inkscape:pageopacity="0"
     inkscape:pageshadow="2"
     inkscape:window-width="3820"
     inkscape:window-height="2102"
     id="namedview4"
     showgrid="true"
     inkscape:zoom="5.4141414"
     inkscape:cx="94.221328"
     inkscape:cy="96.848801"
     inkscape:window-x="10"
     inkscape:window-y="48"
     inkscape:window-maximized="0"
     inkscape:current-layer="g10"
     fit-margin-top="0"
     fit-margin-left="0"
     fit-margin-right="0"
     fit-margin-bottom="0"
     showguides="true"
     inkscape:guide-bbox="true"
     units="px"><inkscape:grid
       type="xygrid"
       id="grid5160"
       originx="-0.00061752766"
       originy="-8.9368338" /><sodipodi:guide
       position="309.99938,41.063167"
       orientation="1,0"
       id="guide5166"
       inkscape:locked="false" /></sodipodi:namedview><g
     id="g10"
     inkscape:groupmode="layer"
     inkscape:label="WUVT-logo"
     transform="matrix(1.25,0,0,-1.25,-41.885803,27.301856)"><path
       d="m 219.45729,-46.658859 c -4.53541,-10.610933 -9.07292,-21.220309 -13.60728,-31.829681 -1.13178,-2.64584 -2.26303,-5.29375 -3.39324,-7.93646 -0.30989,-0.72501 -1.43698,-3.18958 -1.51302,-4.02812 -0.13177,-1.48854 0.59271,-2.925 1.8698,-3.70417 1.41406,-0.86146 2.7875,-0.57292 4.23749,-0.57292 1.44011,0 2.88021,0 4.32083,0 2.87917,0 5.75834,0 8.63646,0 2.88125,0 5.76146,0 8.64271,0 1.44166,0 2.88229,0 4.32188,0 1.45521,0 2.82813,-0.28229 4.2375,0.60105 1.42916,0.89583 1.72083,2.2552 2.2875,3.60416 0.55833,1.32708 1.11563,2.65729 1.675,3.98542 1.11458,2.65624 2.22916,5.3125 3.34583,7.96771 4.46354,10.636457 8.93126,21.276041 13.39792,31.913011 h 24.93021 V -89.18334 l 38.0875,42.524481 h 67.74896 l -4.42813,-9.98385 h -22.97187 l -21.16355,-47.701041 h -15.16042 l 21.12084,47.701041 H 329.43854 L 288.3927,-104.34375 h -19.59791 v 48.439579 C 263.89895,-68.00521 259.00313,-80.1073 254.1073,-92.20938 c -0.46876,-1.15521 -3.07917,-7.83228 -3.84376,-8.88854 -2.41353,-3.32916 -5.32291,-3.24583 -8.83333,-3.24583 -6.52604,0 -13.04896,0 -19.57084,0 -6.53333,0 -13.06354,0 -19.59375,0 -1.15885,0 -8.53021,-0.0708 -9.70416,0.19792 -3.31302,0.75729 -5.76302,3.55729 -6.07239,6.94166 -0.15886,1.75208 0.35729,3.2125 0.98853,4.76251 0.61355,1.50937 1.22813,3.01978 1.84115,4.52811 1.22864,3.01876 2.45729,6.03751 3.6849,9.05626 2.46094,6.04999 4.92188,12.097919 7.38177,18.146869 l -36.23803,-43.633329 h -14.79114 v 42.526043 l -34.01979,-42.526043 h -13.3125 v 57.684891 h 13.3125 V -84.37604 l 31.43073,37.717181 h 16.64062 V -83.6375 l 30.75417,36.978641 z"
       style="fill:#000000;fill-opacity:1;fill-rule:nonzero;stroke:none;stroke-width:1.06666672"
       id="path12"
       inkscape:connector-curvature="0" /><path
       d="m 96.882293,-68.1875 v -36.18646 c -25.412501,0 -48.322922,15.30625 -58.052085,38.783336 -9.728651,23.478645 -4.358859,50.504171 13.606251,68.479691 17.972917,17.983328 45.011978,23.364053 68.500521,13.631765 23.47865,-9.72864 38.78645,-32.640107 38.78645,-58.05312 H 123.5375 l -20.86563,13.869792 -14.818227,-2.853131 -5.246347,-20.341141 7.4552,-11.413024 z"
       style="fill:#000000;fill-opacity:1;fill-rule:nonzero;stroke:#000000;stroke-width:1.06666672;stroke-linecap:butt;stroke-linejoin:miter;stroke-miterlimit:4;stroke-dasharray:none;stroke-opacity:1"
       id="path14"
       inkscape:connector-curvature="0" /><path
       d="m 96.882293,-68.1875 c -10.778122,0 -20.49792,6.492705 -24.622922,16.451041 -4.128118,9.964587 -1.845824,21.432288 5.782816,29.055734 7.623957,7.619786 19.086464,9.896874 29.044793,5.770826 9.95781,-4.125514 16.45,-13.844266 16.45,-24.622389 v 0 h -23.33646 c 0,2.954688 -3.572392,4.434368 -5.662504,2.345835 -2.090624,-2.090112 -0.610933,-5.664587 2.344277,-5.664587 z"
       style="fill:#ffffff;fill-opacity:1;fill-rule:nonzero;stroke:#000000;stroke-width:1.06666672;stroke-linecap:butt;stroke-linejoin:miter;stroke-miterlimit:4;stroke-dasharray:none;stroke-opacity:1"
       id="path16"
       inkscape:connector-curvature="0" /><path
       d="m 133.52135,-29.258336 c -0.10517,2.254165 -0.28333,4.221355 -0.94062,6.484896 -4.12292,14.194272 -18.09896,22.847915 -32.32448,20.681248 l 1.28802,-0.190101 c 14.66406,-1.670827 27.60312,-11.916662 31.97708,-26.976043 z"
       style="fill:#ffffff;fill-opacity:1;fill-rule:nonzero;stroke:none;stroke-width:1.06666672"
       id="path26"
       inkscape:connector-curvature="0" /><path
       d="m 139.2849,-26.593227 c -0.12136,2.602603 -0.32656,4.873952 -1.08595,7.487499 -4.75989,16.388544 -20.89687,26.379691 -37.32135,23.8776 l 1.48699,-0.218752 c 16.93124,-1.929685 31.86979,-13.758325 36.92031,-31.146347 z"
       style="fill:#ffffff;fill-opacity:1;fill-rule:nonzero;stroke:none;stroke-width:1.06666672"
       id="path28"
       inkscape:connector-curvature="0" /><path
       d="m 145.29427,-23.740629 c -0.13593,2.926048 -0.36719,5.480213 -1.22031,8.418229 -5.35156,18.425525 -23.49479,29.658859 -41.96094,26.845835 l 1.67135,-0.245835 c 19.03646,-2.169269 35.83178,-15.469792 41.5099,-35.018229 z"
       style="fill:#ffffff;fill-opacity:1;fill-rule:nonzero;stroke:none;stroke-width:1.06666672"
       id="path30"
       inkscape:connector-curvature="0" /><path
       d="m 57.622912,-42.940629 c -0.438539,-2.213536 -0.739061,-4.166144 -0.644267,-6.521355 0.590624,-14.768224 12.079168,-26.527596 26.408854,-27.841146 l -1.205206,0.49271 c -13.832288,5.14583 -23.931253,18.199999 -24.559381,33.869791 z"
       style="fill:#ffffff;fill-opacity:1;fill-rule:nonzero;stroke:none;stroke-width:1.06666672"
       id="path32"
       inkscape:connector-curvature="0" /><path
       d="M 51.389067,-44.143232 C 50.880725,-46.698955 50.534891,-48.95312 50.643755,-51.672917 51.326037,-68.72396 64.590101,-82.3 81.133856,-83.81771 l -1.390624,0.5698 c -15.97136,5.94166 -27.629685,21.013531 -28.354165,39.104678 z"
       style="fill:#ffffff;fill-opacity:1;fill-rule:nonzero;stroke:none;stroke-width:1.06666672"
       id="path34"
       inkscape:connector-curvature="0" /><path
       d="m 44.869792,-45.467712 c -0.571349,-2.873429 -0.960416,-5.408331 -0.838016,-8.464576 C 44.799477,-73.10521 59.711979,-88.36771 78.313024,-90.075 l -1.563019,0.64062 c -17.957813,6.68021 -31.065632,23.626049 -31.880213,43.966668 z"
       style="fill:#ffffff;fill-opacity:1;fill-rule:nonzero;stroke:none;stroke-width:1.06666672"
       id="path36"
       inkscape:connector-curvature="0" /><g
       aria-label="90.7 fm"
       transform="matrix(1,0,0,-1,3.2,0)"
       style="font-style:normal;font-variant:normal;font-weight:normal;font-stretch:normal;font-size:17.06666756px;line-height:125%;font-family:'DejaVu Sans';-inkscape-font-specification:'DejaVu Sans, Normal';font-variant-ligatures:normal;font-variant-caps:normal;font-variant-numeric:normal;font-feature-settings:normal;text-align:start;letter-spacing:0px;word-spacing:0px;writing-mode:lr-tb;text-anchor:start;fill:#000000;fill-opacity:1;stroke:none;stroke-width:0.80000001px;stroke-linecap:butt;stroke-linejoin:miter;stroke-opacity:1"
       id="text5164"><path
         d="m 320.97305,33.074014 q 0,4.5 -1.89583,6.71875 -1.89583,2.21875 -5.73958,2.21875 -1.35417,0 -2.05209,-0.145833 v -2.583334 q 0.875,0.21875 1.83334,0.21875 1.61458,0 2.65625,-0.46875 1.04166,-0.479166 1.59375,-1.489583 0.55208,-1.020833 0.63541,-2.802084 h -0.125 q -0.60416,0.979167 -1.39583,1.375001 -0.79167,0.395833 -1.97917,0.395833 -1.98958,0 -3.13541,-1.270834 -1.14584,-1.28125 -1.14584,-3.552083 0,-2.447917 1.38542,-3.864583 1.39583,-1.427084 3.79167,-1.427084 1.6875,0 2.94791,0.791667 1.27084,0.791667 1.94792,2.302083 0.67708,1.5 0.67708,3.583334 z m -5.51041,-4.09375 q -1,0 -1.5625,0.6875 -0.5625,0.6875 -0.5625,1.979166 0,1.104167 0.51041,1.75 0.51042,0.645834 1.55209,0.645834 0.97916,0 1.67708,-0.635417 0.69792,-0.645833 0.69792,-1.479167 0,-1.239583 -0.65625,-2.09375 -0.64584,-0.854166 -1.65625,-0.854166 z"
         style="font-style:normal;font-variant:normal;font-weight:bold;font-stretch:normal;font-size:21.33333397px;font-family:'Noto Sans';-inkscape-font-specification:'Noto Sans, Bold';font-variant-ligatures:normal;font-variant-caps:normal;font-variant-numeric:normal;font-feature-settings:normal;text-align:start;writing-mode:lr-tb;text-anchor:start;stroke-width:0.80000001px"
         id="path5187"
         inkscape:connector-curvature="0" /><path
         d="m 333.16055,34.188597 q 0,3.989584 -1.3125,5.90625 -1.30208,1.916667 -4.02083,1.916667 -2.63542,0 -3.97917,-1.979167 -1.33333,-1.979166 -1.33333,-5.84375 0,-4.03125 1.30208,-5.9375 1.30209,-1.916667 4.01042,-1.916667 2.63542,0 3.97917,2 1.35416,2 1.35416,5.854167 z m -7.44791,0 q 0,2.802084 0.47916,4.020834 0.48959,1.208333 1.63542,1.208333 1.125,0 1.625,-1.229167 0.5,-1.229166 0.5,-4 0,-2.802083 -0.51042,-4.020833 -0.5,-1.229167 -1.61458,-1.229167 -1.13542,0 -1.625,1.229167 -0.48958,1.21875 -0.48958,4.020833 z"
         style="font-style:normal;font-variant:normal;font-weight:bold;font-stretch:normal;font-size:21.33333397px;font-family:'Noto Sans';-inkscape-font-specification:'Noto Sans, Bold';font-variant-ligatures:normal;font-variant-caps:normal;font-variant-numeric:normal;font-feature-settings:normal;text-align:start;writing-mode:lr-tb;text-anchor:start;stroke-width:0.80000001px"
         id="path5189"
         inkscape:connector-curvature="0" /><path
         d="m 335.17097,40.313597 q 0,-0.875 0.46875,-1.322916 0.46875,-0.447917 1.36458,-0.447917 0.86459,0 1.33334,0.458333 0.47916,0.458334 0.47916,1.3125 0,0.822917 -0.47916,1.302084 -0.47917,0.46875 -1.33334,0.46875 -0.875,0 -1.35416,-0.458334 -0.47917,-0.46875 -0.47917,-1.3125 z"
         style="font-style:normal;font-variant:normal;font-weight:bold;font-stretch:normal;font-size:21.33333397px;font-family:'Noto Sans';-inkscape-font-specification:'Noto Sans, Bold';font-variant-ligatures:normal;font-variant-caps:normal;font-variant-numeric:normal;font-feature-settings:normal;text-align:start;writing-mode:lr-tb;text-anchor:start;stroke-width:0.80000001px"
         id="path5191"
         inkscape:connector-curvature="0" /><path
         d="m 342.40014,41.803181 5.71875,-12.520834 h -7.51042 v -2.708333 h 10.92709 v 2.020833 l -5.76042,13.208334 z"
         style="font-style:normal;font-variant:normal;font-weight:bold;font-stretch:normal;font-size:21.33333397px;font-family:'Noto Sans';-inkscape-font-specification:'Noto Sans, Bold';font-variant-ligatures:normal;font-variant-caps:normal;font-variant-numeric:normal;font-feature-settings:normal;text-align:start;writing-mode:lr-tb;text-anchor:start;stroke-width:0.80000001px"
         id="path5193"
         inkscape:connector-curvature="0" /><path
         d="m 365.88972,32.542764 h -2.75 v 9.260417 h -3.17708 v -9.260417 h -1.75 v -1.53125 l 1.75,-0.854167 V 29.30318 q 0,-1.989583 0.97917,-2.90625 0.97916,-0.916666 3.13541,-0.916666 1.64584,0 2.92709,0.489583 l -0.8125,2.333333 q -0.95834,-0.302083 -1.77084,-0.302083 -0.67708,0 -0.97916,0.40625 -0.30209,0.395833 -0.30209,1.020833 v 0.729167 h 2.75 z"
         style="font-style:normal;font-variant:normal;font-weight:bold;font-stretch:normal;font-size:21.33333397px;font-family:'Noto Sans';-inkscape-font-specification:'Noto Sans, Bold';font-variant-ligatures:normal;font-variant-caps:normal;font-variant-numeric:normal;font-feature-settings:normal;text-align:start;writing-mode:lr-tb;text-anchor:start;stroke-width:0.80000001px"
         id="path5195"
         inkscape:connector-curvature="0" /><path
         d="m 378.12931,41.803181 h -3.17709 v -6.802084 q 0,-1.260417 -0.42708,-1.885417 -0.41667,-0.635416 -1.32292,-0.635416 -1.21875,0 -1.77083,0.895833 -0.55208,0.895833 -0.55208,2.947917 v 5.479167 h -3.17709 V 30.157347 h 2.42709 l 0.42708,1.489583 h 0.17708 q 0.46875,-0.802083 1.35417,-1.25 0.88542,-0.458333 2.03125,-0.458333 2.61458,0 3.54167,1.708333 h 0.28125 q 0.46875,-0.8125 1.375,-1.260416 0.91666,-0.447917 2.0625,-0.447917 1.97916,0 2.98958,1.020833 1.02083,1.010417 1.02083,3.25 v 7.593751 h -3.1875 v -6.802084 q 0,-1.260417 -0.42708,-1.885417 -0.41667,-0.635416 -1.32292,-0.635416 -1.16666,0 -1.75,0.833333 -0.57291,0.833333 -0.57291,2.645834 z"
         style="font-style:normal;font-variant:normal;font-weight:bold;font-stretch:normal;font-size:21.33333397px;font-family:'Noto Sans';-inkscape-font-specification:'Noto Sans, Bold';font-variant-ligatures:normal;font-variant-caps:normal;font-variant-numeric:normal;font-feature-settings:normal;text-align:start;writing-mode:lr-tb;text-anchor:start;stroke-width:0.80000001px"
         id="path5197"
         inkscape:connector-curvature="0" /></g><g
       aria-label="radio for everyone"
       transform="scale(1,-1)"
       style="font-style:normal;font-variant:normal;font-weight:normal;font-stretch:normal;font-size:17.06666756px;line-height:125%;font-family:Sans;-inkscape-font-specification:'Sans, Normal';font-variant-ligatures:normal;font-variant-caps:normal;font-variant-numeric:normal;font-feature-settings:normal;text-align:start;letter-spacing:0px;word-spacing:0px;writing-mode:lr-tb;text-anchor:start;fill:#000000;fill-opacity:1;stroke:none;stroke-width:0.80000001px;stroke-linecap:butt;stroke-linejoin:miter;stroke-opacity:1"
       id="text5170"><path
         d="m 107.91129,112.76824 q 0.64583,0 1.07291,0.0937 l -0.23958,2.97916 q -0.38542,-0.10416 -0.9375,-0.10416 -1.52083,0 -2.375,0.78125 -0.84375,0.78125 -0.84375,2.1875 v 5.92708 h -3.17708 v -11.64583 h 2.40625 l 0.46875,1.95833 h 0.15625 q 0.54166,-0.97917 1.45833,-1.57292 0.92708,-0.60416 2.01042,-0.60416 z"
         style="font-style:normal;font-variant:normal;font-weight:bold;font-stretch:normal;font-size:21.33333397px;font-family:'Noto Sans';-inkscape-font-specification:'Noto Sans, Bold';font-variant-ligatures:normal;font-variant-caps:normal;font-variant-numeric:normal;font-feature-settings:normal;text-align:start;writing-mode:lr-tb;text-anchor:start;stroke-width:0.80000001px"
         id="path5200"
         inkscape:connector-curvature="0" /><path
         d="m 118.30712,124.63282 -0.61458,-1.58333 h -0.0833 q -0.80208,1.01041 -1.65625,1.40625 -0.84375,0.38541 -2.20833,0.38541 -1.67708,0 -2.64583,-0.95833 -0.95834,-0.95833 -0.95834,-2.72917 0,-1.85416 1.29167,-2.72916 1.30208,-0.88542 3.91667,-0.97917 l 2.02083,-0.0625 v -0.51042 q 0,-1.77083 -1.8125,-1.77083 -1.39583,0 -3.28125,0.84375 l -1.05208,-2.14583 q 2.01041,-1.05209 4.45833,-1.05209 2.34375,0 3.59375,1.02084 1.25,1.02083 1.25,3.10416 v 7.76042 z m -0.9375,-5.39583 -1.22917,0.0417 q -1.38541,0.0417 -2.0625,0.5 -0.67708,0.45834 -0.67708,1.39584 0,1.34375 1.54167,1.34375 1.10416,0 1.76041,-0.63542 0.66667,-0.63542 0.66667,-1.6875 z"
         style="font-style:normal;font-variant:normal;font-weight:bold;font-stretch:normal;font-size:21.33333397px;font-family:'Noto Sans';-inkscape-font-specification:'Noto Sans, Bold';font-variant-ligatures:normal;font-variant-caps:normal;font-variant-numeric:normal;font-feature-settings:normal;text-align:start;writing-mode:lr-tb;text-anchor:start;stroke-width:0.80000001px"
         id="path5202"
         inkscape:connector-curvature="0" /><path
         d="m 127.47379,124.84115 q -2.05209,0 -3.22917,-1.59375 -1.16667,-1.59375 -1.16667,-4.41666 0,-2.86459 1.1875,-4.45834 1.19792,-1.60416 3.29167,-1.60416 2.19792,0 3.35417,1.70833 h 0.10416 q -0.23958,-1.30208 -0.23958,-2.32292 v -3.72916 h 3.1875 v 16.20833 h -2.4375 l -0.61458,-1.51042 h -0.13542 q -1.08333,1.71875 -3.30208,1.71875 z m 1.11458,-2.53125 q 1.21875,0 1.78125,-0.70833 0.57292,-0.70833 0.625,-2.40625 v -0.34375 q 0,-1.875 -0.58333,-2.6875 -0.57292,-0.8125 -1.875,-0.8125 -1.0625,0 -1.65625,0.90625 -0.58334,0.89583 -0.58334,2.61458 0,1.71875 0.59375,2.58334 0.59375,0.85416 1.69792,0.85416 z"
         style="font-style:normal;font-variant:normal;font-weight:bold;font-stretch:normal;font-size:21.33333397px;font-family:'Noto Sans';-inkscape-font-specification:'Noto Sans, Bold';font-variant-ligatures:normal;font-variant-caps:normal;font-variant-numeric:normal;font-feature-settings:normal;text-align:start;writing-mode:lr-tb;text-anchor:start;stroke-width:0.80000001px"
         id="path5204"
         inkscape:connector-curvature="0" /><path
         d="m 137.15087,109.97657 q 0,-1.55208 1.72917,-1.55208 1.72916,0 1.72916,1.55208 0,0.73958 -0.4375,1.15625 -0.42708,0.40625 -1.29166,0.40625 -1.72917,0 -1.72917,-1.5625 z m 3.3125,14.65625 h -3.17708 v -11.64583 h 3.17708 z"
         style="font-style:normal;font-variant:normal;font-weight:bold;font-stretch:normal;font-size:21.33333397px;font-family:'Noto Sans';-inkscape-font-specification:'Noto Sans, Bold';font-variant-ligatures:normal;font-variant-caps:normal;font-variant-numeric:normal;font-feature-settings:normal;text-align:start;writing-mode:lr-tb;text-anchor:start;stroke-width:0.80000001px"
         id="path5206"
         inkscape:connector-curvature="0" /><path
         d="m 146.31754,118.78907 q 0,1.72917 0.5625,2.61458 0.57291,0.88542 1.85416,0.88542 1.27084,0 1.82292,-0.875 0.5625,-0.88542 0.5625,-2.625 0,-1.72917 -0.5625,-2.59375 -0.5625,-0.86458 -1.84375,-0.86458 -1.27083,0 -1.83333,0.86458 -0.5625,0.85417 -0.5625,2.59375 z m 8.05208,0 q 0,2.84375 -1.5,4.44792 -1.5,1.60416 -4.17708,1.60416 -1.67709,0 -2.95834,-0.72916 -1.28125,-0.73959 -1.96875,-2.11459 -0.6875,-1.375 -0.6875,-3.20833 0,-2.85417 1.48959,-4.4375 1.48958,-1.58333 4.1875,-1.58333 1.67708,0 2.95833,0.72916 1.28125,0.72917 1.96875,2.09375 0.6875,1.36459 0.6875,3.19792 z"
         style="font-style:normal;font-variant:normal;font-weight:bold;font-stretch:normal;font-size:21.33333397px;font-family:'Noto Sans';-inkscape-font-specification:'Noto Sans, Bold';font-variant-ligatures:normal;font-variant-caps:normal;font-variant-numeric:normal;font-feature-settings:normal;text-align:start;writing-mode:lr-tb;text-anchor:start;stroke-width:0.80000001px"
         id="path5208"
         inkscape:connector-curvature="0" /><path
         d="m 168.97379,115.3724 h -2.75 v 9.26042 h -3.17709 v -9.26042 h -1.75 v -1.53125 l 1.75,-0.85416 v -0.85417 q 0,-1.98958 0.97917,-2.90625 0.97917,-0.91667 3.13542,-0.91667 1.64583,0 2.92708,0.48959 l -0.8125,2.33333 q -0.95833,-0.30208 -1.77083,-0.30208 -0.67709,0 -0.97917,0.40625 -0.30208,0.39583 -0.30208,1.02083 v 0.72917 h 2.75 z"
         style="font-style:normal;font-variant:normal;font-weight:bold;font-stretch:normal;font-size:21.33333397px;font-family:'Noto Sans';-inkscape-font-specification:'Noto Sans, Bold';font-variant-ligatures:normal;font-variant-caps:normal;font-variant-numeric:normal;font-feature-settings:normal;text-align:start;writing-mode:lr-tb;text-anchor:start;stroke-width:0.80000001px"
         id="path5210"
         inkscape:connector-curvature="0" /><path
         d="m 173.31754,118.78907 q 0,1.72917 0.5625,2.61458 0.57291,0.88542 1.85416,0.88542 1.27084,0 1.82292,-0.875 0.5625,-0.88542 0.5625,-2.625 0,-1.72917 -0.5625,-2.59375 -0.5625,-0.86458 -1.84375,-0.86458 -1.27083,0 -1.83333,0.86458 -0.5625,0.85417 -0.5625,2.59375 z m 8.05208,0 q 0,2.84375 -1.5,4.44792 -1.5,1.60416 -4.17708,1.60416 -1.67709,0 -2.95834,-0.72916 -1.28125,-0.73959 -1.96875,-2.11459 -0.6875,-1.375 -0.6875,-3.20833 0,-2.85417 1.48959,-4.4375 1.48958,-1.58333 4.1875,-1.58333 1.67708,0 2.95833,0.72916 1.28125,0.72917 1.96875,2.09375 0.6875,1.36459 0.6875,3.19792 z"
         style="font-style:normal;font-variant:normal;font-weight:bold;font-stretch:normal;font-size:21.33333397px;font-family:'Noto Sans';-inkscape-font-specification:'Noto Sans, Bold';font-variant-ligatures:normal;font-variant-caps:normal;font-variant-numeric:normal;font-feature-settings:normal;text-align:start;writing-mode:lr-tb;text-anchor:start;stroke-width:0.80000001px"
         id="path5212"
         inkscape:connector-curvature="0" /><path
         d="m 190.49462,112.76824 q 0.64584,0 1.07292,0.0937 l -0.23958,2.97916 q -0.38542,-0.10416 -0.9375,-0.10416 -1.52084,0 -2.375,0.78125 -0.84375,0.78125 -0.84375,2.1875 v 5.92708 h -3.17709 v -11.64583 h 2.40625 l 0.46875,1.95833 h 0.15625 q 0.54167,-0.97917 1.45834,-1.57292 0.92708,-0.60416 2.01041,-0.60416 z"
         style="font-style:normal;font-variant:normal;font-weight:bold;font-stretch:normal;font-size:21.33333397px;font-family:'Noto Sans';-inkscape-font-specification:'Noto Sans, Bold';font-variant-ligatures:normal;font-variant-caps:normal;font-variant-numeric:normal;font-feature-settings:normal;text-align:start;writing-mode:lr-tb;text-anchor:start;stroke-width:0.80000001px"
         id="path5214"
         inkscape:connector-curvature="0" /><path
         d="m 204.06754,115.02865 q -1.01042,0 -1.58333,0.64584 -0.57292,0.63541 -0.65625,1.8125 h 4.45833 q -0.0208,-1.17709 -0.61458,-1.8125 -0.59375,-0.64584 -1.60417,-0.64584 z m 0.44792,9.8125 q -2.8125,0 -4.39584,-1.55208 -1.58333,-1.55208 -1.58333,-4.39583 0,-2.92709 1.45833,-4.52084 1.46875,-1.60416 4.05209,-1.60416 2.46875,0 3.84375,1.40625 1.375,1.40625 1.375,3.88541 v 1.54167 h -7.51042 q 0.0521,1.35417 0.80208,2.11458 0.75,0.76042 2.10417,0.76042 1.05208,0 1.98958,-0.21875 0.9375,-0.21875 1.95834,-0.69792 v 2.45834 q -0.83334,0.41666 -1.78125,0.61458 -0.94792,0.20833 -2.3125,0.20833 z"
         style="font-style:normal;font-variant:normal;font-weight:bold;font-stretch:normal;font-size:21.33333397px;font-family:'Noto Sans';-inkscape-font-specification:'Noto Sans, Bold';font-variant-ligatures:normal;font-variant-caps:normal;font-variant-numeric:normal;font-feature-settings:normal;text-align:start;writing-mode:lr-tb;text-anchor:start;stroke-width:0.80000001px"
         id="path5216"
         inkscape:connector-curvature="0" /><path
         d="m 214.43212,124.63282 -4.4375,-11.64583 h 3.32292 l 2.25,6.63541 q 0.34375,1.08334 0.44791,2.38542 h 0.0833 q 0.0625,-1.17708 0.46875,-2.38542 l 2.23958,-6.63541 H 222.13 l -4.4375,11.64583 z"
         style="font-style:normal;font-variant:normal;font-weight:bold;font-stretch:normal;font-size:21.33333397px;font-family:'Noto Sans';-inkscape-font-specification:'Noto Sans, Bold';font-variant-ligatures:normal;font-variant-caps:normal;font-variant-numeric:normal;font-feature-settings:normal;text-align:start;writing-mode:lr-tb;text-anchor:start;stroke-width:0.80000001px"
         id="path5218"
         inkscape:connector-curvature="0" /><path
         d="m 228.6092,115.02865 q -1.01041,0 -1.58333,0.64584 -0.57292,0.63541 -0.65625,1.8125 h 4.45833 q -0.0208,-1.17709 -0.61458,-1.8125 -0.59375,-0.64584 -1.60417,-0.64584 z m 0.44792,9.8125 q -2.8125,0 -4.39583,-1.55208 -1.58334,-1.55208 -1.58334,-4.39583 0,-2.92709 1.45834,-4.52084 1.46875,-1.60416 4.05208,-1.60416 2.46875,0 3.84375,1.40625 1.375,1.40625 1.375,3.88541 v 1.54167 h -7.51042 q 0.0521,1.35417 0.80209,2.11458 0.75,0.76042 2.10416,0.76042 1.05209,0 1.98959,-0.21875 0.9375,-0.21875 1.95833,-0.69792 v 2.45834 q -0.83333,0.41666 -1.78125,0.61458 -0.94792,0.20833 -2.3125,0.20833 z"
         style="font-style:normal;font-variant:normal;font-weight:bold;font-stretch:normal;font-size:21.33333397px;font-family:'Noto Sans';-inkscape-font-specification:'Noto Sans, Bold';font-variant-ligatures:normal;font-variant-caps:normal;font-variant-numeric:normal;font-feature-settings:normal;text-align:start;writing-mode:lr-tb;text-anchor:start;stroke-width:0.80000001px"
         id="path5220"
         inkscape:connector-curvature="0" /><path
         d="m 242.91129,112.76824 q 0.64583,0 1.07291,0.0937 l -0.23958,2.97916 q -0.38542,-0.10416 -0.9375,-0.10416 -1.52083,0 -2.375,0.78125 -0.84375,0.78125 -0.84375,2.1875 v 5.92708 h -3.17708 v -11.64583 h 2.40625 l 0.46875,1.95833 h 0.15625 q 0.54166,-0.97917 1.45833,-1.57292 0.92708,-0.60416 2.01042,-0.60416 z"
         style="font-style:normal;font-variant:normal;font-weight:bold;font-stretch:normal;font-size:21.33333397px;font-family:'Noto Sans';-inkscape-font-specification:'Noto Sans, Bold';font-variant-ligatures:normal;font-variant-caps:normal;font-variant-numeric:normal;font-feature-settings:normal;text-align:start;writing-mode:lr-tb;text-anchor:start;stroke-width:0.80000001px"
         id="path5222"
         inkscape:connector-curvature="0" /><path
         d="m 244.45296,112.98699 h 3.47917 l 2.19792,6.55208 q 0.28125,0.85417 0.38541,2.02083 h 0.0625 q 0.11459,-1.07291 0.44792,-2.02083 l 2.15625,-6.55208 h 3.40625 l -4.92708,13.13541 q -0.67709,1.82292 -1.9375,2.72917 -1.25,0.90625 -2.92709,0.90625 -0.82291,0 -1.61458,-0.17708 v -2.52084 q 0.57292,0.13542 1.25,0.13542 0.84375,0 1.46875,-0.52083 0.63542,-0.51042 0.98958,-1.55209 l 0.1875,-0.57291 z"
         style="font-style:normal;font-variant:normal;font-weight:bold;font-stretch:normal;font-size:21.33333397px;font-family:'Noto Sans';-inkscape-font-specification:'Noto Sans, Bold';font-variant-ligatures:normal;font-variant-caps:normal;font-variant-numeric:normal;font-feature-settings:normal;text-align:start;writing-mode:lr-tb;text-anchor:start;stroke-width:0.80000001px"
         id="path5224"
         inkscape:connector-curvature="0" /><path
         d="m 260.77588,118.78907 q 0,1.72917 0.5625,2.61458 0.57292,0.88542 1.85417,0.88542 1.27083,0 1.82292,-0.875 0.5625,-0.88542 0.5625,-2.625 0,-1.72917 -0.5625,-2.59375 -0.5625,-0.86458 -1.84376,-0.86458 -1.27083,0 -1.83333,0.86458 -0.5625,0.85417 -0.5625,2.59375 z m 8.05209,0 q 0,2.84375 -1.5,4.44792 -1.5,1.60416 -4.17709,1.60416 -1.67708,0 -2.95833,-0.72916 -1.28125,-0.73959 -1.96875,-2.11459 -0.6875,-1.375 -0.6875,-3.20833 0,-2.85417 1.48958,-4.4375 1.48958,-1.58333 4.1875,-1.58333 1.67709,0 2.95834,0.72916 1.28125,0.72917 1.96875,2.09375 0.6875,1.36459 0.6875,3.19792 z"
         style="font-style:normal;font-variant:normal;font-weight:bold;font-stretch:normal;font-size:21.33333397px;font-family:'Noto Sans';-inkscape-font-specification:'Noto Sans, Bold';font-variant-ligatures:normal;font-variant-caps:normal;font-variant-numeric:normal;font-feature-settings:normal;text-align:start;writing-mode:lr-tb;text-anchor:start;stroke-width:0.80000001px"
         id="path5226"
         inkscape:connector-curvature="0" /><path
         d="m 282.20296,124.63282 h -3.17708 v -6.80208 q 0,-1.26042 -0.44792,-1.88542 -0.44792,-0.63542 -1.42708,-0.63542 -1.33334,0 -1.92709,0.89584 -0.59375,0.88541 -0.59375,2.94791 v 5.47917 h -3.17708 v -11.64583 h 2.42708 l 0.42709,1.48958 h 0.17708 q 0.53125,-0.84375 1.45833,-1.27083 0.9375,-0.4375 2.125,-0.4375 2.03125,0 3.08334,1.10416 1.05208,1.09375 1.05208,3.16667 z"
         style="font-style:normal;font-variant:normal;font-weight:bold;font-stretch:normal;font-size:21.33333397px;font-family:'Noto Sans';-inkscape-font-specification:'Noto Sans, Bold';font-variant-ligatures:normal;font-variant-caps:normal;font-variant-numeric:normal;font-feature-settings:normal;text-align:start;writing-mode:lr-tb;text-anchor:start;stroke-width:0.80000001px"
         id="path5228"
         inkscape:connector-curvature="0" /><path
         d="m 290.31755,115.02865 q -1.01042,0 -1.58334,0.64584 -0.57291,0.63541 -0.65625,1.8125 h 4.45834 q -0.0208,-1.17709 -0.61458,-1.8125 -0.59375,-0.64584 -1.60417,-0.64584 z m 0.44791,9.8125 q -2.8125,0 -4.39583,-1.55208 -1.58333,-1.55208 -1.58333,-4.39583 0,-2.92709 1.45833,-4.52084 1.46875,-1.60416 4.05208,-1.60416 2.46876,0 3.84376,1.40625 1.375,1.40625 1.375,3.88541 v 1.54167 h -7.51042 q 0.0521,1.35417 0.80208,2.11458 0.75,0.76042 2.10417,0.76042 1.05208,0 1.98958,-0.21875 0.9375,-0.21875 1.95834,-0.69792 v 2.45834 q -0.83334,0.41666 -1.78125,0.61458 -0.94792,0.20833 -2.31251,0.20833 z"
         style="font-style:normal;font-variant:normal;font-weight:bold;font-stretch:normal;font-size:21.33333397px;font-family:'Noto Sans';-inkscape-font-specification:'Noto Sans, Bold';font-variant-ligatures:normal;font-variant-caps:normal;font-variant-numeric:normal;font-feature-settings:normal;text-align:start;writing-mode:lr-tb;text-anchor:start;stroke-width:0.80000001px"
         id="path5230"
         inkscape:connector-curvature="0" /></g></g></svg>