<?xml version="1.0" encoding="UTF-8" standalone="no"?>
<!-- Created with Inkscape (http://www.inkscape.org/) -->

<svg
   xmlns:dc="http://purl.org/dc/elements/1.1/"
   xmlns:cc="http://creativecommons.org/ns#"
   xmlns:rdf="http://www.w3.org/1999/02/22-rdf-syntax-ns#"
   xmlns:svg="http://www.w3.org/2000/svg"
   xmlns="http://www.w3.org/2000/svg"
   xmlns:sodipodi="http://sodipodi.sourceforge.net/DTD/sodipodi-0.dtd"
   xmlns:inkscape="http://www.inkscape.org/namespaces/inkscape"
   id="svg2"
   version="1.1"
   inkscape:version="0.48.4 r9939"
   width="416.22092"
   height="148.5343"
   xml:space="preserve"
   sodipodi:docname="logo.svg"><metadata
     id="metadata8"><rdf:RDF><cc:Work
         rdf:about=""><dc:format>image/svg+xml</dc:format><dc:type
           rdf:resource="http://purl.org/dc/dcmitype/StillImage" /><dc:title></dc:title></cc:Work></rdf:RDF></metadata><defs
     id="defs6" /><sodipodi:namedview
     pagecolor="#ffffff"
     bordercolor="#666666"
     borderopacity="1"
     objecttolerance="10"
     gridtolerance="10"
     guidetolerance="10"
     inkscape:pageopacity="0"
     inkscape:pageshadow="2"
     inkscape:window-width="679"
     inkscape:window-height="732"
     id="namedview4"
     showgrid="false"
     inkscape:zoom="0.67676768"
     inkscape:cx="211.18786"
     inkscape:cy="64.588018"
     inkscape:window-x="683"
     inkscape:window-y="34"
     inkscape:window-maximized="0"
     inkscape:current-layer="g10"
     fit-margin-top="0"
     fit-margin-left="0"
     fit-margin-right="0"
     fit-margin-bottom="0" /><g
     id="g10"
     inkscape:groupmode="layer"
     inkscape:label="WUVT-logo"
     transform="matrix(1.25,0,0,-1.25,-39.267361,-11.903934)"><path
       d="m 205.74121,-73.74268 c -4.25195,-9.94775 -8.50586,-19.89404 -12.75683,-29.84033 -1.06104,-2.48047 -2.12159,-4.96289 -3.18116,-7.44043 -0.29052,-0.67969 -1.34717,-2.99023 -1.41845,-3.77636 -0.12354,-1.39551 0.55566,-2.74219 1.75293,-3.47266 1.32568,-0.80762 2.61328,-0.53711 3.97265,-0.53711 1.3501,0 2.7002,0 4.05078,0 2.69922,0 5.39844,0 8.09668,0 2.70117,0 5.40137,0 8.10254,0 1.35156,0 2.70215,0 4.05176,0 1.36426,0 2.65137,-0.26465 3.97266,0.56348 1.33984,0.83984 1.61328,2.11425 2.14453,3.3789 0.52343,1.24414 1.0459,2.49121 1.57031,3.73633 1.04492,2.49023 2.08984,4.98047 3.13672,7.46973 4.18457,9.97168 8.37305,19.94629 12.56055,29.91845 l 23.37207,0 0,-39.8667 35.70703,39.8667 63.51465,0 -4.15137,-9.35986 -21.53613,0 -19.84083,-44.71973 -14.21289,0 19.80079,44.71973 -15.60157,0 -38.48047,-44.71973 -18.37304,0 0,45.41211 c -4.58985,-11.34472 -9.17969,-22.69043 -13.76953,-34.03613 -0.43946,-1.08301 -2.88672,-7.34277 -3.60352,-8.33301 -2.26269,-3.12109 -4.99023,-3.04297 -8.28125,-3.04297 -6.11816,0 -12.2334,0 -18.34766,0 -6.125,0 -12.24707,0 -18.36914,0 -1.08642,0 -7.99707,-0.0664 -9.09765,0.18555 -3.10596,0.70996 -5.40283,3.33496 -5.69287,6.50781 -0.14893,1.64258 0.33496,3.01172 0.92675,4.46485 0.5752,1.41504 1.15137,2.83105 1.72608,4.24511 1.15185,2.83008 2.30371,5.66016 3.45459,8.49024 2.30713,5.67187 4.61426,11.3418 6.92041,17.01269 l -33.97315,-40.90625 -13.8667,0 0,39.86817 -31.89355,-39.86817 -12.48047,0 0,54.07959 12.48047,0 0,-35.35986 29.46631,35.35986 15.60058,0 0,-34.66748 28.83204,34.66748 23.71435,0 z"
       style="fill:#000000;fill-opacity:1;fill-rule:nonzero;stroke:none"
       id="path12"
       inkscape:connector-curvature="0" /><path
       d="m 90.82715,-93.92578 0,-33.92481 c -23.82422,0 -45.30274,14.34961 -54.42383,36.35938 -9.12061,22.01123 -4.08643,47.34766 12.75586,64.19971 16.84961,16.85937 42.19873,21.9038 64.21924,12.77978 22.01123,-9.1206 36.3623,-30.6001 36.3623,-54.4248 l -33.92431,0 -19.56153,13.00293 -13.89209,-2.67481 -4.91845,-19.06982 6.98925,-10.69971 6.39356,-5.54785 z"
       style="fill:#000000;fill-opacity:1;fill-rule:nonzero;stroke:#000000;stroke-width:1;stroke-linecap:butt;stroke-linejoin:miter;stroke-miterlimit:4;stroke-opacity:1;stroke-dasharray:none"
       id="path14"
       inkscape:connector-curvature="0" /><path
       d="m 90.82715,-93.92578 c -10.10449,0 -19.2168,6.08691 -23.08399,15.42285 -3.87011,9.3418 -1.73046,20.09277 5.42139,27.23975 7.14746,7.14355 17.89356,9.27832 27.22949,5.41015 9.33545,-3.86767 15.42188,-12.979 15.42188,-23.08349 l 0,0 -21.87793,0 c 0,2.77002 -3.34912,4.15722 -5.3086,2.19922 -1.95996,-1.95948 -0.57275,-5.31055 2.19776,-5.31055 l 0,-21.87793 z"
       style="fill:#ffffff;fill-opacity:1;fill-rule:nonzero;stroke:#000000;stroke-width:1;stroke-linecap:butt;stroke-linejoin:miter;stroke-miterlimit:4;stroke-opacity:1;stroke-dasharray:none"
       id="path16"
       inkscape:connector-curvature="0" /><path
       d="m 125.17627,-57.42969 c -0.0986,2.11328 -0.26563,3.95752 -0.88184,6.07959 -3.86523,13.30713 -16.96777,21.41992 -30.3042,19.38867 l 1.20752,-0.17822 c 13.74756,-1.5664 25.87793,-11.17187 29.97852,-25.29004 l 0,0 z"
       style="fill:#ffffff;fill-opacity:1;fill-rule:nonzero;stroke:none"
       id="path26"
       inkscape:connector-curvature="0" /><path
       d="m 130.57959,-54.93115 c -0.11377,2.43994 -0.30615,4.56933 -1.01807,7.01953 -4.4624,15.36426 -19.59082,24.73096 -34.98877,22.38525 l 1.39405,-0.20508 c 15.87304,-1.80908 29.87793,-12.89843 34.61279,-29.1997 l 0,0 z"
       style="fill:#ffffff;fill-opacity:1;fill-rule:nonzero;stroke:none"
       id="path28"
       inkscape:connector-curvature="0" /><path
       d="m 136.21338,-52.25684 c -0.12744,2.74317 -0.34424,5.1377 -1.14404,7.89209 -5.01709,17.27393 -22.02637,27.80518 -39.33838,25.16797 l 1.56689,-0.23047 c 17.84668,-2.03369 33.59229,-14.50293 38.91553,-32.82959 l 0,0 z"
       style="fill:#ffffff;fill-opacity:1;fill-rule:nonzero;stroke:none"
       id="path30"
       inkscape:connector-curvature="0" /><path
       d="m 54.02148,-70.25684 c -0.41113,-2.07519 -0.69287,-3.90576 -0.604,-6.11377 0.55371,-13.84521 11.32422,-24.86962 24.7583,-26.10107 l -1.12988,0.46191 c -12.96777,4.82422 -22.43555,17.0625 -23.02442,31.75293 l 0,0 z"
       style="fill:#ffffff;fill-opacity:1;fill-rule:nonzero;stroke:none"
       id="path32"
       inkscape:connector-curvature="0" /><path
       d="m 48.17725,-71.38428 c -0.47657,-2.39599 -0.80079,-4.50927 -0.69873,-7.05908 0.63964,-15.98535 13.0747,-28.71289 28.58447,-30.13574 l -1.30371,0.53418 c -14.97315,5.57031 -25.90283,19.70019 -26.58203,36.66064 l 0,0 z"
       style="fill:#ffffff;fill-opacity:1;fill-rule:nonzero;stroke:none"
       id="path34"
       inkscape:connector-curvature="0" /><path
       d="m 42.06543,-72.62598 c -0.53564,-2.69384 -0.90039,-5.07031 -0.78564,-7.93554 0.71972,-17.97461 14.70019,-32.28321 32.13867,-33.88379 l -1.46533,0.60058 c -16.83545,6.2627 -29.12403,22.14942 -29.8877,41.21875 l 0,0 z"
       style="fill:#ffffff;fill-opacity:1;fill-rule:nonzero;stroke:none"
       id="path36"
       inkscape:connector-curvature="0" /></g></svg>