<?xml version="1.0" encoding="UTF-8" standalone="no"?>
<!-- Created with Inkscape (http://www.inkscape.org/) -->

<svg
   xmlns:dc="http://purl.org/dc/elements/1.1/"
   xmlns:cc="http://creativecommons.org/ns#"
   xmlns:rdf="http://www.w3.org/1999/02/22-rdf-syntax-ns#"
   xmlns:svg="http://www.w3.org/2000/svg"
   xmlns="http://www.w3.org/2000/svg"
   xmlns:sodipodi="http://sodipodi.sourceforge.net/DTD/sodipodi-0.dtd"
   xmlns:inkscape="http://www.inkscape.org/namespaces/inkscape"
   width="1280"
   height="67.40625"
   id="svg4329"
   version="1.1"
   inkscape:version="0.48.4 r9939"
   sodipodi:docname="moon.svg"
   inkscape:export-filename="/home/mutantmonkey/wuvt-site/wuvt/static/img/moon.png"
   inkscape:export-xdpi="300"
   inkscape:export-ydpi="300">
  <defs
     id="defs4331">
    <clipPath
       clipPathUnits="userSpaceOnUse"
       id="clipPath3423">
      <path
         inkscape:connector-curvature="0"
         d="M 0,768 1024,768 1024,0 0,0 0,768 z"
         id="path3425" />
    </clipPath>
  </defs>
  <sodipodi:namedview
     id="base"
     pagecolor="#ffffff"
     bordercolor="#666666"
     borderopacity="1.0"
     inkscape:pageopacity="0.0"
     inkscape:pageshadow="2"
     inkscape:zoom="0.7"
     inkscape:cx="666.42856"
     inkscape:cy="-134.86831"
     inkscape:document-units="px"
     inkscape:current-layer="layer1"
     showgrid="false"
     fit-margin-top="0"
     fit-margin-left="0"
     fit-margin-right="0"
     fit-margin-bottom="0"
     inkscape:window-width="1276"
     inkscape:window-height="764"
     inkscape:window-x="1280"
     inkscape:window-y="34"
     inkscape:window-maximized="0" />
  <metadata
     id="metadata4334">
    <rdf:RDF>
      <cc:Work
         rdf:about="">
        <dc:format>image/svg+xml</dc:format>
        <dc:type
           rdf:resource="http://purl.org/dc/dcmitype/StillImage" />
        <dc:title></dc:title>
      </cc:Work>
    </rdf:RDF>
  </metadata>
  <g
     inkscape:label="Layer 1"
     inkscape:groupmode="layer"
     id="layer1"
     transform="translate(291.42856,-330.08762)">
    <g
       transform="matrix(1.25,0,0,-1.25,-291.42856,397.49387)"
       id="g3419">
      <g
         id="g3421"
         clip-path="url(#clipPath3423)">
        <g
           id="g3427"
           transform="translate(-207,-168)">
          <path
             inkscape:connector-curvature="0"
             d="m 0,0 c 0,76.282 40.941,132.242 177.618,172.428 131.488,38.659 356.341,49.497 554.972,49.497 183.611,0 404.771,-16.297 533.973,-49.497 C 1422.42,132.378 1467,81.832 1467,0"
             style="fill:#f2f2f2;fill-opacity:1;fill-rule:nonzero;stroke:none"
             id="path3429" />
        </g>
        <g
           id="g3431"
           transform="translate(146.8472,9.2129)">
          <path
             inkscape:connector-curvature="0"
             d="m 0,0 c 1.138,-11.126 -19.986,-22.397 -47.181,-25.178 -27.195,-2.781 -50.163,3.984 -51.3,15.11 C -99.619,1.057 -78.496,12.329 -51.3,15.109 -24.105,17.891 -1.137,11.126 0,0"
             style="fill:#cccccc;fill-opacity:1;fill-rule:nonzero;stroke:none"
             id="path3433" />
        </g>
        <g
           id="g3435"
           transform="translate(146.8472,3.2129)">
          <path
             inkscape:connector-curvature="0"
             d="m 0,0 c 1.138,-11.126 -19.986,-22.397 -47.181,-25.178 -27.195,-2.781 -50.163,3.984 -51.3,15.11 C -99.619,1.057 -78.496,12.329 -51.3,15.109 -24.105,17.891 -1.137,11.126 0,0"
             style="fill:#e6e6e6;fill-opacity:1;fill-rule:nonzero;stroke:none"
             id="path3437" />
        </g>
        <g
           id="g3439"
           transform="translate(286.7729,31.5752)">
          <path
             inkscape:connector-curvature="0"
             d="m 0,0 c 0.288,-6.954 -14.55,-13.217 -33.143,-13.988 -18.593,-0.772 -33.899,4.24 -34.188,11.195 -0.288,6.954 14.55,13.216 33.143,13.987 C -15.595,11.967 -0.289,6.955 0,0"
             style="fill:#cccccc;fill-opacity:1;fill-rule:nonzero;stroke:none"
             id="path3441" />
        </g>
        <g
           id="g3443"
           transform="translate(286.7729,26.5752)">
          <path
             inkscape:connector-curvature="0"
             d="m 0,0 c 0.288,-6.954 -14.55,-13.217 -33.143,-13.988 -18.593,-0.772 -33.899,4.24 -34.188,11.195 -0.288,6.954 14.55,13.216 33.143,13.987 C -15.595,11.967 -0.289,6.955 0,0"
             style="fill:#e6e6e6;fill-opacity:1;fill-rule:nonzero;stroke:none"
             id="path3445" />
        </g>
        <g
           id="g3447"
           transform="translate(455.9956,-0.2441)">
          <path
             inkscape:connector-curvature="0"
             d="m 0,0 c -1.248,-9.529 -21.682,-14.713 -45.645,-11.58 -23.962,3.133 -42.378,13.397 -41.132,22.928 1.247,9.527 21.68,14.712 45.643,11.578 C -17.17,19.794 1.246,9.53 0,0"
             style="fill:#cccccc;fill-opacity:1;fill-rule:nonzero;stroke:none"
             id="path3449" />
        </g>
        <g
           id="g3451"
           transform="translate(454.9956,-6.2441)">
          <path
             inkscape:connector-curvature="0"
             d="m 0,0 c -1.248,-9.529 -21.682,-14.713 -45.645,-11.58 -23.962,3.133 -42.378,13.397 -41.132,22.928 1.247,9.527 21.68,14.712 45.643,11.578 C -17.17,19.794 1.246,9.53 0,0"
             style="fill:#e6e6e6;fill-opacity:1;fill-rule:nonzero;stroke:none"
             id="path3453" />
        </g>
        <g
           id="g3455"
           transform="translate(594.3008,34.2617)">
          <path
             inkscape:connector-curvature="0"
             d="m 0,0 c 0.339,-8.194 -16.835,-15.562 -38.36,-16.454 -21.526,-0.894 -39.252,5.025 -39.593,13.221 -0.338,8.194 16.836,15.56 38.359,16.454 C -18.066,14.114 -0.34,8.195 0,0"
             style="fill:#cccccc;fill-opacity:1;fill-rule:nonzero;stroke:none"
             id="path3457" />
        </g>
        <g
           id="g3459"
           transform="translate(593.3008,29.2617)">
          <path
             inkscape:connector-curvature="0"
             d="m 0,0 c 0.339,-8.194 -16.835,-15.562 -38.36,-16.454 -21.526,-0.894 -39.252,5.025 -39.593,13.221 -0.338,8.194 16.836,15.56 38.359,16.454 C -18.066,14.114 -0.34,8.195 0,0"
             style="fill:#e6e6e6;fill-opacity:1;fill-rule:nonzero;stroke:none"
             id="path3461" />
        </g>
        <g
           id="g3463"
           transform="translate(663.3027,24.5469)">
          <path
             inkscape:connector-curvature="0"
             d="m 0,0 c 0.734,-5.557 -11.66,-11.781 -27.686,-13.901 -16.025,-2.121 -29.613,0.665 -30.349,6.223 -0.734,5.557 11.661,11.782 27.685,13.902 C -14.323,8.345 -0.735,5.558 0,0"
             style="fill:#cccccc;fill-opacity:1;fill-rule:nonzero;stroke:none"
             id="path3465" />
        </g>
        <g
           id="g3467"
           transform="translate(665.3027,20.5469)">
          <path
             inkscape:connector-curvature="0"
             d="m 0,0 c 0.734,-5.557 -11.66,-11.781 -27.686,-13.901 -16.025,-2.121 -29.613,0.665 -30.349,6.223 -0.734,5.557 11.661,11.782 27.685,13.902 C -14.323,8.345 -0.735,5.558 0,0"
             style="fill:#e6e6e6;fill-opacity:1;fill-rule:nonzero;stroke:none"
             id="path3469" />
        </g>
        <g
           id="g3471"
           transform="translate(811.0723,26.2568)">
          <path
             inkscape:connector-curvature="0"
             d="m 0,0 c -0.889,-6.139 -16.174,-9.011 -34.143,-6.415 -17.969,2.595 -31.817,9.676 -30.931,15.817 0.889,6.138 16.175,9.011 34.141,6.415 C -12.961,13.223 0.887,6.139 0,0"
             style="fill:#cccccc;fill-opacity:1;fill-rule:nonzero;stroke:none"
             id="path3473" />
        </g>
        <g
           id="g3475"
           transform="translate(809.0723,21.2568)">
          <path
             inkscape:connector-curvature="0"
             d="m 0,0 c -0.889,-6.139 -16.174,-9.011 -34.143,-6.415 -17.969,2.595 -31.817,9.676 -30.931,15.817 0.889,6.138 16.175,9.011 34.141,6.415 C -12.961,13.223 0.887,6.139 0,0"
             style="fill:#e6e6e6;fill-opacity:1;fill-rule:nonzero;stroke:none"
             id="path3477" />
        </g>
        <g
           id="g3479"
           transform="translate(967.457,12.9375)">
          <path
             inkscape:connector-curvature="0"
             d="m 0,0 c 1.132,-4.789 -8.324,-11.124 -21.121,-14.149 -12.797,-3.028 -24.089,-1.6 -25.222,3.19 -1.131,4.788 8.324,11.124 21.12,14.149 C -12.425,6.219 -1.132,4.787 0,0"
             style="fill:#cccccc;fill-opacity:1;fill-rule:nonzero;stroke:none"
             id="path3481" />
        </g>
        <g
           id="g3483"
           transform="translate(966.457,7.9375)">
          <path
             inkscape:connector-curvature="0"
             d="m 0,0 c 1.132,-4.789 -8.324,-11.124 -21.121,-14.149 -12.797,-3.028 -24.089,-1.6 -25.222,3.19 -1.131,4.788 8.324,11.124 21.12,14.149 C -12.425,6.219 -1.132,4.787 0,0"
             style="fill:#e6e6e6;fill-opacity:1;fill-rule:nonzero;stroke:none"
             id="path3485" />
        </g>
      </g>
    </g>
  </g>
</svg>
