<?xml version="1.0" encoding="UTF-8" standalone="no"?>
<!-- Created with Inkscape (http://www.inkscape.org/) -->

<svg
   xmlns:dc="http://purl.org/dc/elements/1.1/"
   xmlns:cc="http://creativecommons.org/ns#"
   xmlns:rdf="http://www.w3.org/1999/02/22-rdf-syntax-ns#"
   xmlns:svg="http://www.w3.org/2000/svg"
   xmlns="http://www.w3.org/2000/svg"
   xmlns:sodipodi="http://sodipodi.sourceforge.net/DTD/sodipodi-0.dtd"
   xmlns:inkscape="http://www.inkscape.org/namespaces/inkscape"
   width="62.038593"
   height="41.25"
   id="svg5978"
   version="1.1"
   inkscape:version="0.48.4 r9939"
   sodipodi:docname="New document 43">
  <defs
     id="defs5980">
    <clipPath
       clipPathUnits="userSpaceOnUse"
       id="clipPath3169">
      <path
         inkscape:connector-curvature="0"
         d="M 0,768 1024,768 1024,0 0,0 0,768 z"
         id="path3171" />
    </clipPath>
  </defs>
  <sodipodi:namedview
     id="base"
     pagecolor="#ffffff"
     bordercolor="#666666"
     borderopacity="1.0"
     inkscape:pageopacity="0.0"
     inkscape:pageshadow="2"
     inkscape:zoom="0.35"
     inkscape:cx="1500.3111"
     inkscape:cy="-682.23214"
     inkscape:document-units="px"
     inkscape:current-layer="layer1"
     showgrid="false"
     fit-margin-top="0"
     fit-margin-left="0"
     fit-margin-right="0"
     fit-margin-bottom="0"
     inkscape:window-width="1276"
     inkscape:window-height="764"
     inkscape:window-x="1280"
     inkscape:window-y="34"
     inkscape:window-maximized="0" />
  <metadata
     id="metadata5983">
    <rdf:RDF>
      <cc:Work
         rdf:about="">
        <dc:format>image/svg+xml</dc:format>
        <dc:type
           rdf:resource="http://purl.org/dc/dcmitype/StillImage" />
        <dc:title></dc:title>
      </cc:Work>
    </rdf:RDF>
  </metadata>
  <g
     inkscape:label="Layer 1"
     inkscape:groupmode="layer"
     id="layer1"
     transform="translate(1125.3111,191.11996)">
    <g
       id="g3141"
       transform="matrix(1.25,0,0,-1.25,-1072.2267,-170.49496)">
      <path
         d="m 0,0 c 0,-9.113 -7.387,-16.5 -16.5,-16.5 -9.113,0 -16.5,7.387 -16.5,16.5 0,9.113 7.387,16.5 16.5,16.5 C -7.387,16.5 0,9.113 0,0"
         style="fill:#fbb03b;fill-opacity:1;fill-rule:nonzero;stroke:none"
         id="path3143"
         inkscape:connector-curvature="0" />
    </g>
    <g
       transform="matrix(1.25,0,0,-1.25,-2169.9684,-82.36996)"
       clip-path="url(#clipPath3169)"
       id="g3167">
      <g
         transform="translate(857.918,68.5039)"
         id="g3173">
        <path
           inkscape:connector-curvature="0"
           id="path3175"
           style="fill:#ffffff;fill-opacity:1;fill-rule:nonzero;stroke:none"
           d="M 0,0 C -0.234,0.986 0.375,1.975 1.362,2.209 2.349,2.442 3.338,1.832 3.571,0.846 3.805,-0.141 3.195,-1.131 2.21,-1.365 1.221,-1.598 0.233,-0.987 0,0" />
      </g>
      <g
         transform="translate(866.9414,69.1953)"
         id="g3177">
        <path
           inkscape:connector-curvature="0"
           id="path3179"
           style="fill:#ffffff;fill-opacity:1;fill-rule:nonzero;stroke:none"
           d="m 0,0 c -1.188,5.016 -6.146,7.466 -11.161,6.278 l 0.604,-2.547 c 0,0 1.346,0.354 1.8,0.356 0.453,0.003 1.984,0.08 3.403,-0.877 1.498,-1.007 2.211,-1.6 2.807,-3.813 L 0,0 z" />
      </g>
      <g
         transform="translate(871.5713,70.293)"
         id="g3181">
        <path
           inkscape:connector-curvature="0"
           id="path3183"
           style="fill:#ffffff;fill-opacity:1;fill-rule:nonzero;stroke:none"
           d="m 0,0 c -0.263,1.115 -1.971,4.78 -3.715,6.393 -1.971,1.822 -3.623,2.835 -6.418,3.566 -1.751,0.46 -5.045,0.083 -6.755,-0.147 l 0.604,-2.548 c 0,0 2.977,0.462 3.43,0.464 0.454,0.002 3.729,-0.067 5.841,-1.907 1.362,-1.184 3.872,-4.211 4.466,-6.425 L 0,0 z" />
      </g>
      <g
         transform="translate(841.7793,71.7471)"
         id="g3185">
        <path
           inkscape:connector-curvature="0"
           id="path3187"
           style="fill:none;stroke:#fcee21;stroke-width:4.02400017;stroke-linecap:round;stroke-linejoin:miter;stroke-miterlimit:10;stroke-opacity:1;stroke-dasharray:none"
           d="m 0,0 c -2.865,-2.018 -4.386,-4.113 -3.97,-5.922 0.946,-4.117 11.545,-5.195 23.677,-2.41 12.13,2.784 22.75,7.663 21.806,11.78 -0.252,1.096 -1.753,2.033 -3.22,2.683" />
      </g>
    </g>
  </g>
</svg>
